<svg id="Layer_1" data-name="Layer 1" xmlns="http://www.w3.org/2000/svg" viewBox="0 0 70.17 69.58"><g id="Grupo_51" data-name="Grupo 51"><defs><style>.cls-1{fill:#000;}</style></defs><g id="Grupo_3" data-name="Grupo 3"><path id="Trazado_5" data-name="Trazado 5" class="cls-1" d="M1.72,36.83A1.72,1.72,0,0,1,0,35.11H0A35,35,0,0,1,29.18.52a1.72,1.72,0,0,1,2,1.38h0a1.72,1.72,0,0,1-1.4,2A31.57,31.57,0,0,0,3.42,35.09a1.71,1.71,0,0,1-1.7,1.74Z"/><path id="Trazado_6" data-name="Trazado 6" class="cls-1" d="M68.47,36.83a1.72,1.72,0,0,1-1.72-1.72h0A31.7,31.7,0,0,0,35.09,3.45a1.72,1.72,0,0,1-1.73-1.73h0A1.72,1.72,0,0,1,35.09,0,35.13,35.13,0,0,1,70.17,35.09a1.71,1.71,0,0,1-1.7,1.74Z"/><path id="Trazado_7" data-name="Trazado 7" class="cls-1" d="M3.16,44.84a1.73,1.73,0,0,1-.67-3.29h0L3,41.33c3-1.22,5.29-2.46,5.29-6.2a27.17,27.17,0,0,1,.35-4.32,1.72,1.72,0,0,1,1.95-1.42h0a1.74,1.74,0,0,1,1.42,2,22.56,22.56,0,0,0-.31,3.77A9.8,9.8,0,0,1,4.3,44.51l-.5.2A1.56,1.56,0,0,1,3.16,44.84Z"/><path id="Trazado_8" data-name="Trazado 8" class="cls-1" d="M12.2,26.62a1.71,1.71,0,0,1-1.56-2.41h0A26.77,26.77,0,0,1,35.1,8.34a1.72,1.72,0,0,1,1.73,1.73h0a1.72,1.72,0,0,1-1.73,1.72A23.32,23.32,0,0,0,13.77,25.64,1.72,1.72,0,0,1,12.2,26.62Z"/><path id="Trazado_9" data-name="Trazado 9" class="cls-1" d="M53,64.67a1.66,1.66,0,0,1-.79-.2,1.72,1.72,0,0,1-.73-2.31,52.19,52.19,0,0,0,7-27A23.33,23.33,0,0,0,44.19,13.61a1.74,1.74,0,0,1-.91-2.25h0a1.73,1.73,0,0,1,2.24-.91h0A26.77,26.77,0,0,1,61.88,35.13a55.28,55.28,0,0,1-7.39,28.63A1.7,1.7,0,0,1,53,64.67Z"/><path id="Trazado_10" data-name="Trazado 10" class="cls-1" d="M39.35,69.58A1.72,1.72,0,0,1,38,66.82,51,51,0,0,0,50.33,35.13,15.24,15.24,0,0,0,35.1,19.9a1.72,1.72,0,0,1-1.72-1.72h0a1.72,1.72,0,0,1,1.72-1.73A18.67,18.67,0,0,1,53.75,35.11a54.25,54.25,0,0,1-13.06,33.8A1.7,1.7,0,0,1,39.35,69.58Z"/><path id="Trazado_11" data-name="Trazado 11" class="cls-1" d="M5.81,53a1.72,1.72,0,0,1-.53-3.34h0a15.2,15.2,0,0,0,11.16-14.5,18.57,18.57,0,0,1,8.85-15.87,1.73,1.73,0,0,1,2.36.56h0a1.74,1.74,0,0,1-.55,2.36h0a15.14,15.14,0,0,0-7.25,13A18.54,18.54,0,0,1,6.32,52.89,1.5,1.5,0,0,1,5.81,53Z"/><path id="Trazado_12" data-name="Trazado 12" class="cls-1" d="M27.87,69.25a1.72,1.72,0,0,1-1.69-1.76,1.75,1.75,0,0,1,.59-1.26A40.65,40.65,0,0,0,41.86,35.12,6.76,6.76,0,0,0,28.34,35v.09c0,11-5.46,19.31-16.21,24.58a1.72,1.72,0,0,1-1.52-3.07h0A22.85,22.85,0,0,0,24.92,35.12a10.18,10.18,0,1,1,20.35-.76c0,.25,0,.5,0,.76A44.09,44.09,0,0,1,29,68.85,1.72,1.72,0,0,1,27.87,69.25Z"/><path id="Trazado_13" data-name="Trazado 13" class="cls-1" d="M18.41,65.65a1.72,1.72,0,0,1-.87-3.18h0A33.61,33.61,0,0,0,25.47,56,1.72,1.72,0,0,1,28,58.28h0a36.67,36.67,0,0,1-8.75,7.13A1.62,1.62,0,0,1,18.41,65.65Z"/><path id="Trazado_14" data-name="Trazado 14" class="cls-1" d="M30.38,54a1.72,1.72,0,0,1-1.7-1.75,1.63,1.63,0,0,1,.23-.84h0A31.59,31.59,0,0,0,33.4,35.13a1.73,1.73,0,0,1,1.72-1.73h0a1.73,1.73,0,0,1,1.72,1.73h0a34.84,34.84,0,0,1-5,18A1.71,1.71,0,0,1,30.38,54Z"/></g></g></svg>