<svg xmlns="http://www.w3.org/2000/svg" viewBox="0 0 425.61 467.92"><defs></defs><g id="Layer_2" data-name="Layer 2"><defs><style>.cls-1{fill:#3827B4;}</style></defs><path class="cls-1" d="M4.32,206.36c18.74-55.72,88.33-75.7,133.84-38.43,2.66,2.17,4.32,2.4,7.23.45,35.86-24.07,71.85-48,107.69-72.06a7.19,7.19,0,0,0,2.7-5.44C252.91,45.47,285.71,5.12,329.41.52c47-4.95,87.76,25.79,94.81,71.58,5.69,36.88-14.42,74.11-48.39,89.57a84.76,84.76,0,0,1-100.46-22.45c-1.07-1.26-2.12-2.53-3.41-4.08l-12,8q-45.21,30.12-90.45,60.18c-3.12,2.06-3.91,3.73-2.71,7.54a77.11,77.11,0,0,1-.15,47.09c-.75,2.4-1.2,4.07,1.44,5.82Q219.58,297.88,271,332.19a5.11,5.11,0,0,0,1.09.36c2.69-3,5.22-6.33,8.19-9.17,24.64-23.66,53.69-31.71,86.24-21.22s52.45,33.81,58,67.78c7.94,48.52-26.79,92.9-75.57,97.72a140.74,140.74,0,0,1-16.66,0c-45.43-4.25-79.64-44.48-76.3-89.94.22-3.07-.51-4.75-3.08-6.45q-53.81-35.68-107.43-71.62c-2.86-1.92-4.52-1.86-7.23.35C90.45,339,17.69,315.13,2.38,255.48-3,230.82,2.17,212.74,4.32,206.36Zm81-15a42.89,42.89,0,0,0-42.72,42.42c-.17,23.21,19,42.65,42.28,42.85a42.89,42.89,0,0,0,43-42.67C128,210.85,108.54,191.39,85.3,191.36Zm255.34-63.92A42.51,42.51,0,1,0,298,85.13C297.94,108.4,317.21,127.52,340.64,127.44Zm-.19,213.1a42.53,42.53,0,1,0,42.77,42.19A42.6,42.6,0,0,0,340.45,340.54Z"/></g></svg>