<svg id="Layer_1" data-name="Layer 1" xmlns="http://www.w3.org/2000/svg" viewBox="0 0 83.1 83.08"><defs><style>.cls-1{fill:#747474;}</style></defs><g id="_11-call_center_support" data-name=" 11-call center support"><g id="linear_color" data-name="linear color"><path id="Trazado_78" data-name="Trazado 78" class="cls-1" d="M59.35,29.2V24.15a2,2,0,0,0-1.72-2l-4.18-.52-1.31-3.16,2.59-3.32a2,2,0,0,0-.16-2.62l-7.8-7.79a2,2,0,0,0-2.61-.16L40.84,7.21,37.67,5.9l-.51-4.18a2,2,0,0,0-2-1.72h-11a2,2,0,0,0-2,1.72L21.67,5.9,18.51,7.21,15.19,4.62a2,2,0,0,0-2.61.16l-7.8,7.79a2,2,0,0,0-.16,2.62l2.59,3.32L5.9,21.67l-4.18.52a2,2,0,0,0-1.72,2v11a2,2,0,0,0,1.72,2l4.18.51,1.32,3.16L4.63,44.15a2,2,0,0,0,.16,2.61l7.79,7.79a2,2,0,0,0,2.62.16l3.32-2.58,3.16,1.3.52,4.18a2,2,0,0,0,2,1.73h5.06A27,27,0,1,0,59.35,29.2ZM25.47,51.79a2,2,0,0,0-1.21-1.58L19,48a2,2,0,0,0-2,.26l-2.85,2.23L8.83,45.19l2.22-2.85a2,2,0,0,0,.27-2L9.13,35.07a2,2,0,0,0-1.58-1.21L4,33.42V25.91l3.59-.44a2,2,0,0,0,1.58-1.21L11.32,19a2,2,0,0,0-.27-2L8.83,14.14l5.31-5.31L17,11.05a2,2,0,0,0,2,.27l5.29-2.19a2,2,0,0,0,1.21-1.59L25.91,4h7.52l.44,3.59a2,2,0,0,0,1.21,1.59l5.29,2.19a2,2,0,0,0,2-.27L45.2,8.82l5.31,5.32L48.29,17A2,2,0,0,0,48,19l2.19,5.29a2,2,0,0,0,1.59,1.2l3.59.44V29a26.78,26.78,0,0,0-10.81,2.55,15.05,15.05,0,1,0-16.85,13,15.34,15.34,0,0,0,3.83,0A27,27,0,0,0,29,55.38h-3.1Zm9.15-12.21a11.13,11.13,0,1,1,2.73-17.92l.16.17a11.14,11.14,0,0,1,2.07,12.78A27.14,27.14,0,0,0,34.62,39.58ZM56.06,79.12A23.08,23.08,0,1,1,79.14,56,23.08,23.08,0,0,1,56.06,79.12Z"/><path id="Trazado_79" data-name="Trazado 79" class="cls-1" d="M71.89,51.43h-3.3v-2a12.53,12.53,0,0,0-25.06,0v2h-3.3a3.3,3.3,0,0,0-3.3,3.29v6.93a3,3,0,0,0,3,3h3.63v.65a5.94,5.94,0,0,0,5.93,5.94H58.7a2,2,0,0,0,0-4H49.46a2,2,0,0,1-2-2V49.45a8.58,8.58,0,0,1,17.15-.1V62.64a2,2,0,0,0,2,2h5.61a3,3,0,0,0,3-3V54.72A3.3,3.3,0,0,0,71.89,51.43Zm-31,4h2.64v5.28H40.89Zm30.35,5.28H68.6V55.38h2.64Z"/></g></g></svg>