<svg id="Layer_1" data-name="Layer 1" xmlns="http://www.w3.org/2000/svg" viewBox="0 0 70.17 93.61"><defs><style>.cls-1{fill:#C0C7D1;}</style></defs><g id="Grupo_64" data-name="Grupo 64"><path id="Trazado_76" data-name="Trazado 76" class="cls-1" d="M61.4,35.14H58.48V23.44a23.39,23.39,0,0,0-46.78-.1v11.8H8.77A8.77,8.77,0,0,0,0,43.91V84.84a8.78,8.78,0,0,0,8.77,8.77H61.4a8.79,8.79,0,0,0,8.77-8.77V43.91A8.77,8.77,0,0,0,61.4,35.14ZM17.54,23.44A17.55,17.55,0,1,1,52.63,23V35.14H17.54ZM64.33,84.83a2.93,2.93,0,0,1-2.93,2.93H8.77a2.93,2.93,0,0,1-2.92-2.93V43.9A2.92,2.92,0,0,1,8.77,41H61.4a2.93,2.93,0,0,1,2.93,2.92Z"/><path id="Trazado_77" data-name="Trazado 77" class="cls-1" d="M35.09,50.72a7.79,7.79,0,0,0-2.93,15v9.35a2.93,2.93,0,1,0,5.86,0h0V65.74a7.79,7.79,0,0,0-2.92-15Zm0,5.86a2,2,0,1,1-2,2h0a1.94,1.94,0,0,1,1.94-2h0Z"/></g></svg>