<svg id="Layer_1" data-name="Layer 1" xmlns="http://www.w3.org/2000/svg" viewBox="0 0 86.97 87.31"><defs><style>.cls-1{fill:#C0C7D1;}</style></defs><g id="oZFlaB.tif"><g id="Grupo_72" data-name="Grupo 72"><path id="Trazado_86" data-name="Trazado 86" class="cls-1" d="M8.71,0H55.27a2.8,2.8,0,0,0,.46.16A12.57,12.57,0,0,1,66.35,11.07a73.18,73.18,0,0,1,.17,7.41v2.26a23.07,23.07,0,0,1,0,45.85V79.18a8.63,8.63,0,0,1-.07,1.44,7.65,7.65,0,0,1-7.88,6.68H19.11c-3.83,0-7.67,0-11.51,0A7.44,7.44,0,0,1,.2,80.93a46.88,46.88,0,0,1-.17-6A2.61,2.61,0,0,1,2.27,72,2.73,2.73,0,0,1,3,72H6.85V70.77q0-33.66,0-67.33A3.28,3.28,0,0,1,8.71,0ZM41,46.22H19.91a2.63,2.63,0,0,1-2.62-1.54,2.55,2.55,0,0,1,1.3-3.37,2.53,2.53,0,0,1,1.24-.21H41L42.15,36H19.89a2.61,2.61,0,0,1-2.6-1.56,2.55,2.55,0,0,1,2.57-3.56H44a1.42,1.42,0,0,0,1.32-.66,22.69,22.69,0,0,1,8.26-7.09,23.62,23.62,0,0,1,7.78-2.36V15.34H54A2.59,2.59,0,0,1,51.18,13a3.68,3.68,0,0,1,0-.47V5.17H12V72H53.42a2.59,2.59,0,0,1,2.86,2.29,2,2,0,0,1,0,.55v4.43A2.58,2.58,0,0,0,61.4,80a3,3,0,0,0,0-.73V66.56l-.47-.09a23.09,23.09,0,0,1-15.8-9.57,1.3,1.3,0,0,0-.9-.44c-2,0-3.92,0-5.88,0H19.85a2.56,2.56,0,0,1-.41-5.11h22.7ZM64,25.76a17.9,17.9,0,1,0,17.83,18v0A17.93,17.93,0,0,0,64,25.75ZM5.12,77.12v2A2.69,2.69,0,0,0,7.34,82.2a3.1,3.1,0,0,0,.86,0H51.39l-.32-5.08ZM60.86,10.21a6.78,6.78,0,0,0-4.52-4.49v4.49Z"/><path id="Trazado_87" data-name="Trazado 87" class="cls-1" d="M31.55,10.4H43.13a2.58,2.58,0,1,1,.67,5.12,2.35,2.35,0,0,1-.7,0H19.93a2.57,2.57,0,0,1-.61-5.11,2.36,2.36,0,0,1,.65,0Z"/><path id="Trazado_88" data-name="Trazado 88" class="cls-1" d="M29.83,25.75H20a2.58,2.58,0,0,1-.65-5.12,2.36,2.36,0,0,1,.65,0H39.79a2.57,2.57,0,0,1,.53,5.11,2.35,2.35,0,0,1-.53,0Z"/><path id="Trazado_89" data-name="Trazado 89" class="cls-1" d="M29.86,66.67H20a2.58,2.58,0,0,1-.68-5.12,2.41,2.41,0,0,1,.71,0H39.76a2.58,2.58,0,1,1,.57,5.12,2.41,2.41,0,0,1-.6,0Z"/><path id="Trazado_90" data-name="Trazado 90" class="cls-1" d="M76.74,37.83A21.26,21.26,0,0,1,65.39,57.74a2.84,2.84,0,0,1-2.91,0A20.62,20.62,0,0,1,51.34,41.27a51.3,51.3,0,0,1-.16-6.2,2.49,2.49,0,0,1,2.5-2.49,2.35,2.35,0,0,1,.6.07A7.1,7.1,0,0,0,62,30.13a2.51,2.51,0,0,1,4,0,7.11,7.11,0,0,0,7.62,2.51,2.52,2.52,0,0,1,3.07,1.81,2.82,2.82,0,0,1,.08.65C76.76,36,76.74,36.81,76.74,37.83Zm-20.48.23a15.91,15.91,0,0,0,7.3,14.32,1.18,1.18,0,0,0,1-.15A15.48,15.48,0,0,0,71.13,43a13.74,13.74,0,0,0,.45-4.94,12.42,12.42,0,0,1-7.24-2.4.77.77,0,0,0-.72,0,12.65,12.65,0,0,1-7.36,2.43Z"/></g></g></svg>