<svg id="Layer_1" data-name="Layer 1" xmlns="http://www.w3.org/2000/svg" viewBox="0 0 86.98 87"><g id="Grupo_76" data-name="Grupo 76"><path id="Trazado_97" data-name="Trazado 97" class="cls-1" d="M86.37,39.78l0,0a1.09,1.09,0,0,0,.13-.17l.07-.11.06-.11a.71.71,0,0,0,.08-.15l0-.09.06-.19,0-.05a2.33,2.33,0,0,0,.07-.25h0a2.74,2.74,0,0,0-.74-2.48L72.6,22.55a2.72,2.72,0,0,0-3.85,3.85l9,9H49.84a2.72,2.72,0,1,0,0,5.43H77.71l-9,9a2.72,2.72,0,0,0,3.85,3.85L86.16,40A1.21,1.21,0,0,0,86.37,39.78Z"/><path id="Trazado_98" data-name="Trazado 98" class="cls-1" d="M55.27,47.13a2.72,2.72,0,0,0-2.72,2.72h0V66.16A4.54,4.54,0,0,1,48,70.69H36.24V14.5a7.34,7.34,0,0,0-4.93-6.9L24.8,5.44H48A4.52,4.52,0,0,1,52.55,10V26.28a2.72,2.72,0,1,0,5.44,0h0V10A10,10,0,0,0,48,0H7.24A7.24,7.24,0,0,0,0,7.24H0V72.49a7.32,7.32,0,0,0,4.94,6.9l21.81,7.26A7.5,7.5,0,0,0,29,87a7.24,7.24,0,0,0,7.24-7.24h0V76.13H48a10,10,0,0,0,10-10V49.83A2.72,2.72,0,0,0,55.27,47.13ZM30.8,79.75A1.82,1.82,0,0,1,29,81.57a2.47,2.47,0,0,1-.6-.08L6.67,74.24a1.87,1.87,0,0,1-1.26-1.75V7.25A1.82,1.82,0,0,1,7.22,5.43a2.33,2.33,0,0,1,.59.08l21.73,7.25a1.89,1.89,0,0,1,1.26,1.75Z"/></g></svg>