<svg id="Layer_1" data-name="Layer 1" xmlns="http://www.w3.org/2000/svg" viewBox="0 0 76.8 90.08"><defs><style>.cls-1{fill:#C0C7D1;}</style></defs><g id="Grupo_75" data-name="Grupo 75"><g id="Grupo_74" data-name="Grupo 74"><g id="Grupo_73" data-name="Grupo 73"><path id="Trazado_91" data-name="Trazado 91" class="cls-1" d="M75.41,15.55A149.73,149.73,0,0,1,39.36.26a1.89,1.89,0,0,0-1.92,0A145.49,145.49,0,0,1,1.38,15.55,1.91,1.91,0,0,0,0,17.38V36.74a55.73,55.73,0,0,0,16.9,40.7c8.31,8.14,18,12.64,21.5,12.64s13.19-4.5,21.5-12.64a55.7,55.7,0,0,0,16.9-40.7V17.38A1.91,1.91,0,0,0,75.41,15.55ZM73,36.74a52,52,0,0,1-15.78,38,21.14,21.14,0,0,1-37.69,0,52,52,0,0,1-15.78-38V18.81A149.4,149.4,0,0,0,38.4,4.08,153.88,153.88,0,0,0,73,18.81Z"/><path id="Trazado_92" data-name="Trazado 92" class="cls-1" d="M21.6,18.6a1.9,1.9,0,0,0-2.46-1.07h0c-3.38,1.34-6.86,2.57-10.33,3.65A1.89,1.89,0,0,0,7.49,23v7.32a1.9,1.9,0,1,0,3.79,0V24.38c3.1-1,6.21-2.12,9.25-3.32a1.89,1.89,0,0,0,1.07-2.45Z"/><path id="Trazado_93" data-name="Trazado 93" class="cls-1" d="M25.2,19a2,2,0,0,0,.76-.16h0a1.9,1.9,0,0,0-1.53-3.47h0A1.89,1.89,0,0,0,25.2,19Z"/><path id="Trazado_94" data-name="Trazado 94" class="cls-1" d="M61,61.1a1.89,1.89,0,0,0-2.62.55h0a46.28,46.28,0,0,1-5.45,6.8,47.92,47.92,0,0,1-5.43,4.83,1.9,1.9,0,0,0,2.3,3,52.69,52.69,0,0,0,5.86-5.21,50.44,50.44,0,0,0,5.9-7.37A1.9,1.9,0,0,0,61,61.1Z"/><path id="Trazado_95" data-name="Trazado 95" class="cls-1" d="M43.07,76.25l-.11.07a1.89,1.89,0,0,0,.95,3.53,1.78,1.78,0,0,0,1-.25l.12-.07a1.89,1.89,0,0,0-1.91-3.27Z"/><path id="Trazado_96" data-name="Trazado 96" class="cls-1" d="M25.48,41.17a6.16,6.16,0,0,0-8.71,8.71L28,61.07a6.16,6.16,0,0,0,8.72,0h0L60,37.72A6.16,6.16,0,1,0,51.31,29l-19,19ZM54,31.68A2.38,2.38,0,0,1,57.37,35l0,0L34,58.39a2.37,2.37,0,0,1-3.36,0h0L19.45,47.2a2.37,2.37,0,0,1,3.24-3.46l.11.11L31,52a1.9,1.9,0,0,0,2.68,0Z"/></g></g></g></svg>