<svg id="Layer_1" data-name="Layer 1" xmlns="http://www.w3.org/2000/svg" viewBox="0 0 154.28 163.13"><defs><style>.cls-1{fill:#fff;}</style></defs><path class="cls-1" d="M39.92,116a2.88,2.88,0,0,1-.65-.07,3.21,3.21,0,0,1-2.57-3.14,3,3,0,0,1,.07-.66c1.76-8.55,13.2-45.21,22.79-74.28.87-2.65,1.85-5.24,2.9-7.7A67.66,67.66,0,0,1,75,10.3C58,13.68,45.08,18,36.53,23.13,25,29.79,8,73.58,8,84.28a19.62,19.62,0,0,0,.8,4.9c9,10.1,17.49,16.84,23.43,18.55a3.21,3.21,0,1,1-1.77,6.17c-9.36-2.68-19.83-12.91-27-21a3.17,3.17,0,0,1-.67-1.22,26.47,26.47,0,0,1-1.26-7.38c0-11.49,17.23-58.36,31.71-66.69C44.49,10.83,62.45,5.48,86.61,1.71A3.21,3.21,0,0,1,88.3,7.87c-.09,0-11.49,5-19.93,24.77-.92,2.15-1.78,4.41-2.56,6.73l-.15.46c-9.53,28.89-20.88,65.24-22.6,73.56A3.21,3.21,0,0,1,39.92,116Z"/><path class="cls-1" d="M124.91,110.74a3.19,3.19,0,0,1-3.12-2.46c-3.06-12.65-12.12-26.83-30.31-47.4C75.1,42.36,63.66,34.07,63.55,34a3.23,3.23,0,0,1-1.09-3.88C72,7.72,85.34,2.14,85.9,1.91a3.14,3.14,0,0,1,1.18-.23l3.47,0a2.8,2.8,0,0,1,.4,0c22.52,2.69,61.77,51.7,61.77,77.12a54.55,54.55,0,0,1-1.62,12,3.21,3.21,0,0,1-1,1.67c-5.82,5.23-14.63,12.58-23.57,17.88A3.28,3.28,0,0,1,124.91,110.74ZM69.38,30.38c4.21,3.34,14.15,11.81,26.91,26.24,17,19.24,26.41,33.3,30.54,45.93a162.44,162.44,0,0,0,18.23-14.23,46.14,46.14,0,0,0,1.23-9.52c0-22.07-36.46-68.12-55.91-70.72l-2.54,0C85.7,9.21,76.69,14.68,69.38,30.38Z"/><path class="cls-1" d="M65.23,161.47c-11.34,0-25-2.16-35.74-19.45C18.55,124.37,6.56,104.48,2.82,91.66a3.21,3.21,0,0,1,5.49-3C17.46,99,26.17,106,32.22,107.73c19.63,5.63,67.68,7.14,83.2,1a56.58,56.58,0,0,0,7.86-3.95c8.48-5,16.94-12.08,22.54-17.12a3.21,3.21,0,0,1,5.28,3.11c-4.78,20.77-19.26,50.89-26.58,58.2-9,9-30.84,12.65-47.45,12.29-1.94,0-4,0-6.14.11C69.12,161.41,67.21,161.47,65.23,161.47Zm-50-56.78c5.11,10.08,12.32,22,19.69,33.94,10.64,17.16,24,16.71,35.76,16.29,2.27-.08,4.45-.16,6.5-.11,15.34.35,35.55-3.19,42.77-10.4,5-5,15.93-26.35,22-45.06a133.79,133.79,0,0,1-15.46,11h0a63.3,63.3,0,0,1-8.76,4.39c-16.81,6.66-66.41,5.22-87.34-.79C25.48,112.48,20.19,108.93,15.26,104.69Zm109.65,2.84h0Z"/></svg>