<svg id="Layer_1" data-name="Layer 1" xmlns="http://www.w3.org/2000/svg" viewBox="0 0 54.67 54.67"><defs><style>.cls-1{fill:#C0C7D1;}</style></defs><g id="Grupo_3434" data-name="Grupo 3434"><g id="Grupo_3438" data-name="Grupo 3438"><g id="Layer_2" data-name="Layer 2"><g id="icons_Q2" data-name="icons Q2"><path id="Trazado_2226" data-name="Trazado 2226" class="cls-1" d="M27.21,0A27.35,27.35,0,1,0,46.66,8,27.33,27.33,0,0,0,27.21,0Zm0,49.93A22.47,22.47,0,1,1,49.68,27.46,22.47,22.47,0,0,1,27.21,49.93Z"/><path id="Trazado_2227" data-name="Trazado 2227" class="cls-1" d="M27.21,22.47a2.5,2.5,0,0,0-2.5,2.5v15a2.5,2.5,0,0,0,5,0V25A2.49,2.49,0,0,0,27.21,22.47Z"/><circle id="Elipse_310" data-name="Elipse 310" class="cls-1" cx="26.53" cy="15.8" r="2.25"/></g></g></g></g></svg>