<svg id="Layer_1" data-name="Layer 1" xmlns="http://www.w3.org/2000/svg" xmlns:xlink="http://www.w3.org/1999/xlink" viewBox="0 0 429.99 463.78"><defs><style>.cls-1{opacity:0.2;fill:url(#linear-gradient);}.cls-1,.cls-2,.cls-3,.cls-4{isolation:isolate;}.cls-2{opacity:0.4;fill:url(#linear-gradient-2);}.cls-3,.cls-4{opacity:0.7;}.cls-3{fill:url(#linear-gradient-3);}.cls-4{fill:url(#linear-gradient-4);}</style><linearGradient id="linear-gradient" x1="1785.82" y1="-37.99" x2="1785.82" y2="-39" gradientTransform="matrix(429.77, 0, 0, -460.45, -767276.46, -17491.05)" gradientUnits="userSpaceOnUse"><stop offset="0" stop-color="#6c18a4"/><stop offset="1" stop-color="#3827b4"/></linearGradient><linearGradient id="linear-gradient-2" x1="1785.82" y1="-38.15" x2="1785.82" y2="-39.16" gradientTransform="matrix(429.77, 0, 0, -425.15, -767276.46, -16182.27)" gradientUnits="userSpaceOnUse"><stop offset="0" stop-color="#6c18a4"/><stop offset="1" stop-color="#6c18a4"/></linearGradient><linearGradient id="linear-gradient-3" x1="1786.63" y1="-38.13" x2="1786.63" y2="-39.14" gradientTransform="matrix(516.16, 0, 0, -429.01, -921974.57, -16324.75)" xlink:href="#linear-gradient-2"/><linearGradient id="linear-gradient-4" x1="1785.32" y1="-38.62" x2="1786.33" y2="-38.61" gradientTransform="matrix(429.84, 0, 0, -432.83, -767409.03, -16466.51)" gradientUnits="userSpaceOnUse"><stop offset="0" stop-color="#3827b4"/><stop offset="1" stop-color="#6c18a4"/></linearGradient></defs><g id="Background"><path id="Trazado_5" data-name="Trazado 5" class="cls-1" d="M431.17,84.7S310.57,26.82,179.86,49.38-1.18,1.12-1.18,1.12V465.05H431.17Z"/><path id="Trazado_4" data-name="Trazado 4" class="cls-2" d="M431.17,38.72S360.89,24,248.83,72.38-1.18,47.1-1.18,47.1v418H431.17Z"/><path id="Trazado_1" data-name="Trazado 1" class="cls-3" d="M-1.18,34.66c36-3.38,83-1,141.42,15.72C292.63,93.92,431.17,78.43,431.17,78.43V465.05H-1.18Z"/><path id="Trazado_2" data-name="Trazado 2" class="cls-4" d="M-1.18,53.4s67-49.56,219-5.95S431.17,89.26,431.17,89.26V465.05H-1.18Z"/></g></svg>