<svg id="Layer_1" data-name="Layer 1" xmlns="http://www.w3.org/2000/svg" xmlns:xlink="http://www.w3.org/1999/xlink" viewBox="0 0 429.99 438.7"><defs><style>.cls-1{opacity:0.2;fill:url(#linear-gradient);}.cls-1,.cls-2,.cls-3,.cls-4{isolation:isolate;}.cls-2{opacity:0.4;fill:url(#linear-gradient-2);}.cls-3,.cls-4{opacity:0.7;}.cls-3{fill:url(#linear-gradient-3);}.cls-4{fill:url(#linear-gradient-4);}</style><linearGradient id="linear-gradient" x1="1239.44" y1="-34.04" x2="1239.44" y2="-35.05" gradientTransform="matrix(-429.67, 0, 0, 431.13, 532762.85, 15109.12)" gradientUnits="userSpaceOnUse"><stop offset="0" stop-color="#6c18a4"/><stop offset="1" stop-color="#3827b4"/></linearGradient><linearGradient id="linear-gradient-2" x1="1239.42" y1="-33.86" x2="1239.42" y2="-34.87" gradientTransform="matrix(-431.93, 0, 0, 396.25, 535556.35, 13815.54)" xlink:href="#linear-gradient"/><linearGradient id="linear-gradient-3" x1="1239.91" y1="-34.39" x2="1239.09" y2="-34.39" gradientTransform="matrix(-432.63, 0, 0, 400.17, 536423.51, 13960.4)" gradientUnits="userSpaceOnUse"><stop offset="0" stop-color="#3827b4"/><stop offset="1" stop-color="#6c18a4"/></linearGradient><linearGradient id="linear-gradient-4" x1="1239.91" y1="-34.41" x2="1238.92" y2="-34.41" gradientTransform="matrix(-433.13, 0, 0, 403.84, 537046.99, 14096.5)" xlink:href="#linear-gradient-3"/></defs><g id="Background"><path id="Trazado_5" data-name="Trazado 5" class="cls-1" d="M-.29,354.09s120.08,54,250.21,32.94,180.36,45,180.36,45V-.29H-.29Z"/><path id="Trazado_4" data-name="Trazado 4" class="cls-2" d="M-.29,395.14s70,13.7,181.56-31.23,249,23.45,249,23.45V-.29H-.29Z"/><path id="Trazado_1" data-name="Trazado 1" class="cls-3" d="M430.28,398.82c-35.85,3.66-82.93,1.87-142.9-14.23-150.67-40.44-287.67-26-287.67-26V-.29H430.28Z"/><path id="Trazado_2" data-name="Trazado 2" class="cls-4" d="M430.28,381.89s-65.89,46.05-217.6,5.53-213-38.86-213-38.86V-.29H430.28Z"/></g></svg>