<svg id="Layer_1" xmlns="http://www.w3.org/2000/svg" viewBox="0 0 152.07 152.07"><defs><style>.cls-1{fill:#D4D4D4;}</style></defs><path class="cls-1" d="M143.59,55.75a6.13,6.13,0,0,1-6.14-6.14V20.5a5.88,5.88,0,0,0-5.87-5.87h-29.1a6.15,6.15,0,1,1,0-12.29h29.1A18.18,18.18,0,0,1,149.73,20.5V49.61A6.13,6.13,0,0,1,143.59,55.75Z"/><path class="cls-1" d="M8.48,55.75a6.14,6.14,0,0,1-6.14-6.14V20.5A18.18,18.18,0,0,1,20.49,2.34H49.6a6.15,6.15,0,0,1,0,12.29H20.49a5.87,5.87,0,0,0-5.86,5.87V49.61A6.14,6.14,0,0,1,8.48,55.75Z"/><path class="cls-1" d="M131.58,149.73h-29.1a6.14,6.14,0,1,1,0-12.28h29.1a5.89,5.89,0,0,0,5.87-5.87V102.47a6.14,6.14,0,1,1,12.28,0v29.11A18.17,18.17,0,0,1,131.58,149.73Z"/><path class="cls-1" d="M49.6,149.73H20.49A18.17,18.17,0,0,1,2.34,131.58V102.47a6.15,6.15,0,0,1,12.29,0v29.11a5.88,5.88,0,0,0,5.86,5.87H49.6a6.14,6.14,0,0,1,0,12.28Z"/><path class="cls-1" d="M60.55,70.87H30a6.13,6.13,0,0,1-6.14-6.14V30A6.13,6.13,0,0,1,30,23.84H60.55A6.13,6.13,0,0,1,66.69,30V64.73A6.14,6.14,0,0,1,60.55,70.87ZM36.12,58.59H54.41V36.12H36.12Z"/><path class="cls-1" d="M122.1,128.24H92.93a6.14,6.14,0,0,1-6.15-6.14V102.55a6.15,6.15,0,0,1,12.29,0V116H116V97.53H108.7a6.14,6.14,0,1,1,0-12.28h13.4a6.14,6.14,0,0,1,6.14,6.14V122.1A6.14,6.14,0,0,1,122.1,128.24Z"/><path class="cls-1" d="M122.1,61.24H97a6.14,6.14,0,0,1-6.14-6.14V30A6.14,6.14,0,0,1,97,23.84H122.1A6.14,6.14,0,0,1,128.24,30V55.1A6.14,6.14,0,0,1,122.1,61.24ZM103.11,49H116V36.12H103.11Z"/><path class="cls-1" d="M79,89.15H30a6.14,6.14,0,0,1,0-12.28H72.83V35.56a6.14,6.14,0,0,1,12.28,0V83A6.14,6.14,0,0,1,79,89.15Z"/><path class="cls-1" d="M96,87.62a6.14,6.14,0,0,1-6.15-6.14V73.11A6.14,6.14,0,0,1,96,67h27.63a6.14,6.14,0,1,1,0,12.28H102.14v2.23A6.14,6.14,0,0,1,96,87.62Z"/><path class="cls-1" d="M76.17,120.26A6.14,6.14,0,0,1,70,114.12v-14a6.14,6.14,0,1,1,12.28,0v14A6.13,6.13,0,0,1,76.17,120.26Z"/><path class="cls-1" d="M59.15,128.24H30a6.13,6.13,0,0,1-6.14-6.14V99.77A6.13,6.13,0,0,1,30,93.63H59.15a6.14,6.14,0,0,1,6.14,6.14V122.1A6.14,6.14,0,0,1,59.15,128.24ZM36.12,116H53v-10H36.12Z"/></svg>