<svg id="Layer_1" data-name="Layer 1" xmlns="http://www.w3.org/2000/svg" viewBox="0 0 107 107"><defs><style>.cls-1{isolation:isolate;}.cls-1{fill:#D4D4D4;}</style></defs><g id="Grupo_5549" data-name="Grupo 5549"><g id="Configuración" class="cls-1"><g class="cls-1"><path class="cls-1" d="M98.38,40.3h-2.9A2.59,2.59,0,0,1,93,38.59c-.33-.84-.67-1.67-1-2.49a2.58,2.58,0,0,1,.52-2.94l2.07-2.08a7.93,7.93,0,0,0,0-11.19l-7.46-7.46a7.94,7.94,0,0,0-11.2,0L73.85,14.5a2.6,2.6,0,0,1-2.94.53c-.82-.38-1.65-.72-2.49-1.06a2.59,2.59,0,0,1-1.72-2.45V8.62A7.91,7.91,0,0,0,58.78.7H48.22A7.92,7.92,0,0,0,40.3,8.62v2.9A2.61,2.61,0,0,1,38.59,14c-.84.32-1.67.66-2.49,1a2.6,2.6,0,0,1-2.94-.53l-2.08-2.07a7.93,7.93,0,0,0-11.19,0l-7.46,7.48a7.94,7.94,0,0,0,0,11.2l2.07,2.07A2.6,2.6,0,0,1,15,36.1c-.38.82-.72,1.65-1,2.5a2.58,2.58,0,0,1-2.46,1.7H8.62A7.92,7.92,0,0,0,.7,48.22V58.78A7.91,7.91,0,0,0,8.62,66.7h2.9A2.61,2.61,0,0,1,14,68.41c.32.84.66,1.67,1,2.49a2.6,2.6,0,0,1-.53,2.94l-2.07,2.08a7.93,7.93,0,0,0,0,11.19l7.46,7.46a7.93,7.93,0,0,0,11.19,0l2.07-2.07A2.65,2.65,0,0,1,36.08,92c.82.38,1.65.72,2.49,1.06a2.6,2.6,0,0,1,1.73,2.45v2.9a7.93,7.93,0,0,0,7.92,7.93H58.78a7.92,7.92,0,0,0,7.92-7.93v-2.9A2.59,2.59,0,0,1,68.41,93c.84-.33,1.67-.67,2.49-1a2.61,2.61,0,0,1,2.94.52l2.08,2.07a7.93,7.93,0,0,0,11.19,0l7.46-7.46a7.94,7.94,0,0,0,0-11.2L92.5,73.85A2.6,2.6,0,0,1,92,70.91c.38-.82.72-1.65,1.06-2.49a2.59,2.59,0,0,1,2.45-1.72h2.9a7.92,7.92,0,0,0,7.93-7.92V48.22A7.93,7.93,0,0,0,98.38,40.3ZM101,58.78a2.65,2.65,0,0,1-2.65,2.64h-2.9a7.94,7.94,0,0,0-7.39,5.11c-.28.74-.58,1.46-.91,2.18a7.94,7.94,0,0,0,1.58,8.86l2.07,2.07a2.64,2.64,0,0,1,0,3.73h0l-7.46,7.46a2.65,2.65,0,0,1-3.74,0l-2.07-2.07a7.94,7.94,0,0,0-8.86-1.58c-.71.32-1.44.62-2.18.9a8,8,0,0,0-5.1,7.39v2.9A2.65,2.65,0,0,1,58.78,101H48.22a2.65,2.65,0,0,1-2.64-2.65v-2.9a7.94,7.94,0,0,0-5.11-7.39c-.74-.28-1.46-.58-2.18-.91a7.94,7.94,0,0,0-8.86,1.58l-2.07,2.07a2.64,2.64,0,0,1-3.73,0h0l-7.47-7.45a2.65,2.65,0,0,1,0-3.74l2.07-2.07a8,8,0,0,0,1.59-8.86c-.33-.71-.63-1.44-.91-2.18a8,8,0,0,0-7.39-5.11H8.62A2.64,2.64,0,0,1,6,58.78V48.22a2.64,2.64,0,0,1,2.64-2.64h2.9a7.94,7.94,0,0,0,7.39-5.11c.28-.74.59-1.46.91-2.18a7.94,7.94,0,0,0-1.58-8.86l-2.08-2.07a2.64,2.64,0,0,1,0-3.73h0l7.46-7.47a2.65,2.65,0,0,1,3.74,0l2.07,2.07a7.93,7.93,0,0,0,8.86,1.59c.71-.33,1.44-.63,2.18-.91a8,8,0,0,0,5.11-7.39V8.62A2.64,2.64,0,0,1,48.22,6H58.78a2.64,2.64,0,0,1,2.64,2.64v2.9a7.94,7.94,0,0,0,5.11,7.39c.74.28,1.46.59,2.18.91a7.94,7.94,0,0,0,8.86-1.58l2.07-2.07a2.67,2.67,0,0,1,3.74,0l7.46,7.46a2.65,2.65,0,0,1,0,3.74l-2.07,2.07a7.94,7.94,0,0,0-1.58,8.86c.32.71.62,1.44.9,2.18a8,8,0,0,0,7.39,5.1h2.9A2.65,2.65,0,0,1,101,48.22V58.78Z"/><path class="cls-1" d="M77.21,52.44c0-.63-.07-1.26-.15-1.89s-.18-1.35-.32-2c-.09-.43-.22-.86-.33-1.29s-.32-1.08-.5-1.6c-.13-.37-.27-.73-.4-1.1a23.18,23.18,0,0,0-1.17-2.47c0-.06,0-.12-.09-.19a23.28,23.28,0,0,0-2.37-3.46l-.25-.27c-.36-.43-.74-.85-1.13-1.25-.2-.21-.42-.41-.64-.62s-.53-.49-.79-.72-.65-.55-1-.81l-.43-.32A23.64,23.64,0,0,0,53.5,29.74c-.26,0-.53,0-.79.05-.56,0-1.13.05-1.7.1l-.89.11c-.86.12-1.72.28-2.56.48a23.77,23.77,0,0,0,0,46l.13,0c.91.22,1.83.4,2.76.53.62.07,1.24.09,1.85.12.41,0,.8.08,1.23.08.75,0,1.53,0,2.33-.13l.26,0c.64-.08,1.29-.17,2-.3.27,0,.51-.12.77-.18.46-.11.92-.22,1.4-.36s.73-.24,1.09-.37l1.11-.4c.38-.15.69-.31,1-.47s.89-.4,1.32-.64h0a31,31,0,0,0,6.76-4.89A8.14,8.14,0,0,0,73,67.78a28.33,28.33,0,0,0,4-10.85c.07-.51.14-1,.18-1.54s.06-1,.07-1.43c0-.15,0-.29,0-.44C77.26,53.15,77.23,52.8,77.21,52.44ZM72,54.17c0,.22,0,.44,0,.66q-.08,1-.24,1.92A18.55,18.55,0,0,1,62.4,69.69l-1,.48-.22.1a18.78,18.78,0,0,1-4.82,1.46l-.35,0c-.33,0-.65.09-1,.12s-.85.06-1.28.07h-.56c-.62,0-1.25,0-1.87-.12l-.31,0a19.56,19.56,0,0,1-2.16-.4,18.49,18.49,0,0,1,0-35.81h0A19.15,19.15,0,0,1,53.5,35a17,17,0,0,1,2.26.15l.59.09a16.53,16.53,0,0,1,1.7.35l.54.14a18.5,18.5,0,0,1,4,1.69l.6.37c.42.26.82.53,1.22.83l.64.47c.51.42,1,.86,1.48,1.32.19.19.36.4.54.6s.6.67.89,1,.38.49.56.75.53.78.77,1.18l.4.66a18.9,18.9,0,0,1,.91,1.93c.1.26.19.53.29.79.17.49.32,1,.44,1.48.07.26.14.49.2.75a19.79,19.79,0,0,1,.34,2.16c0,.2,0,.39,0,.58Q72,53.26,72,54.17Z"/></g></g></g></svg>