<svg xmlns="http://www.w3.org/2000/svg" width="24" height="40" viewBox="0 0 87.244 92.448">
  <g id="Grupo_6072" data-name="Grupo 6072" transform="translate(-707.875 -86.079)">
    <g id="Grupo_6069" data-name="Grupo 6069" transform="translate(707.876 86.079)">
      <path id="Trazado_184" data-name="Trazado 184" d="M127.654,322.2V272.172c.191-.7.359-1.4.573-2.083,1.335-4.271,4.481-6.478,8.632-7.522h49.224c8.731,2.167,9.59,8.826,8.9,16.385,3.431,0,6.543-.066,9.653.018a9.154,9.154,0,0,1,7.842,4.044c1.144,1.769,1.633,3.963,2.416,5.968v56.027c-.8,5.426-3.895,8.734-9.2,10.006H156.468c-4.2-1.06-7.391-3.3-8.559-7.669a18.863,18.863,0,0,1-.414-4.541c-.055-3.5-.018-7.012-.018-10.661-3.133,0-5.989.016-8.844-.005-3.363-.023-6.423-1.05-8.355-3.855C129.049,326.5,128.5,324.241,127.654,322.2Zm79.227-5.211q0-13.5-.005-27c0-2.269-.869-3.159-3.133-3.159q-22.7-.023-45.4,0c-2.1,0-3.028.958-3.028,3.081q-.02,27,0,54c0,2.264.885,3.128,3.143,3.128q22.5.008,45,0c2.691,0,3.421-.748,3.424-3.45Q206.885,330.289,206.881,316.986Zm-59.38,7.208v-2.6c0-10.6-.037-21.2.016-31.806.031-6.557,4.4-10.83,10.948-10.838q13.3-.02,26.6,0h2.183c0-1.871.005-3.4,0-4.931-.01-2.7-.772-3.473-3.408-3.473q-22.3,0-44.6,0c-2.853,0-3.562.688-3.562,3.5q-.008,17.2,0,34.405c0,4.266.01,8.535,0,12.8-.005,1.725.7,2.884,2.518,2.929C141.18,324.246,144.18,324.194,147.5,324.194Z" transform="translate(-127.654 -262.566)" fill="#fff"/>
    </g>
  </g>
</svg>
