<svg id="Layer_1" data-name="Layer 1" xmlns="http://www.w3.org/2000/svg" viewBox="0 0 107 107"><g id="surface1"><path class="cls-1" d="M53.25,1.17A32.57,32.57,0,0,0,33.79,59.86v2.72a9.6,9.6,0,0,0-.68,13.78A9.61,9.61,0,0,0,37.29,92.1a16.17,16.17,0,0,0,31.91,0,9.6,9.6,0,0,0,4.19-15.74,9.61,9.61,0,0,0-.69-13.79V59.86A32.57,32.57,0,0,0,53.25,1.17ZM66.36,66.3a3.5,3.5,0,0,1,0,7H40.13a3.5,3.5,0,0,1,0-7ZM53.25,99.52a10.07,10.07,0,0,1-9.58-7H62.82A10.06,10.06,0,0,1,53.25,99.52ZM66.36,86.41H40.13a3.5,3.5,0,0,1,0-7H66.36a3.5,3.5,0,1,1,0,7Zm1.58-30.68a3.06,3.06,0,0,0-1.36,2.54v1.92H62.86V48.12l4.4-4.4a3.06,3.06,0,0,0-4.33-4.33l-5.29,5.3a3.07,3.07,0,0,0-.9,2.16V60.18h-7V46.85a3,3,0,0,0-.9-2.16l-5.29-5.3a3.06,3.06,0,1,0-4.33,4.33l4.4,4.4V60.18H39.91V58.27a3,3,0,0,0-1.35-2.54,26.44,26.44,0,1,1,29.38,0Z"/><path class="cls-1" d="M13.69,33.74a3.07,3.07,0,0,0-3.06-3.07H4.07a3.07,3.07,0,0,0,0,6.13h6.56A3.06,3.06,0,0,0,13.69,33.74Z"/><path class="cls-1" d="M102.42,30.67H95.87a3.07,3.07,0,0,0,0,6.13h6.55a3.07,3.07,0,1,0,0-6.13Z"/><path class="cls-1" d="M14.81,52.4,9.13,55.67a3.07,3.07,0,0,0,1.53,5.72A3.13,3.13,0,0,0,12.19,61l5.68-3.28a3.06,3.06,0,0,0-3.06-5.3Z"/><path class="cls-1" d="M90.16,15.49a3.13,3.13,0,0,0,1.53-.41l5.68-3.28a3.06,3.06,0,1,0-3.06-5.3L88.63,9.77a3.07,3.07,0,0,0,1.53,5.72Z"/><path class="cls-1" d="M97.37,55.67,91.69,52.4a3.06,3.06,0,0,0-3.06,5.3L94.31,61a3.1,3.1,0,0,0,1.52.41,3.07,3.07,0,0,0,1.54-5.72Z"/><path class="cls-1" d="M17.87,9.77,12.19,6.5a3.06,3.06,0,1,0-3.06,5.3l5.68,3.28a3.06,3.06,0,0,0,3.06-5.31Z"/></g></svg>