<svg id="Layer_1" data-name="Layer 1" xmlns="http://www.w3.org/2000/svg" viewBox="0 0 59.09 54"><defs><style>.cls-1{isolation:isolate;}.cls-2{fill:#D4D4D4;}</style></defs><g id="Grupo_5550" data-name="Grupo 5550"><g id="Inicio" class="cls-1"><g class="cls-1"></g></g><path class="cls-2" d="M13.26,53.25a7.7,7.7,0,0,1-7.68-7.67V30.19a1.62,1.62,0,0,1,3.23,0V45.58A4.44,4.44,0,0,0,13.25,50h6.33V34.87a7,7,0,0,1,7-7h3.62a7,7,0,0,1,7,7v7.39a1.62,1.62,0,1,1-3.23,0V34.87a3.79,3.79,0,0,0-3.78-3.79H26.59a3.79,3.79,0,0,0-3.78,3.79V50H43.56A4.46,4.46,0,0,0,48,45.58V30.19a1.61,1.61,0,0,1,1.55-1.61h.08a1.61,1.61,0,0,1,1.61,1.61V45.58a7.7,7.7,0,0,1-7.68,7.67Z"/><path class="cls-2" d="M54.29,26.5A1.61,1.61,0,0,1,53.15,26L31.63,4.56a4.54,4.54,0,0,0-6.44,0L3.71,26a1.57,1.57,0,0,1-1,.31,1.64,1.64,0,0,1-1-.32,1.62,1.62,0,0,1-.34-2.22L23,2.28a7.77,7.77,0,0,1,11,0L55.68,24.05a1.62,1.62,0,0,1-1.39,2.45Z"/></g></svg>