<svg id="Layer_1" data-name="Layer 1" xmlns="http://www.w3.org/2000/svg" viewBox="0 0 138.55 127.15"><defs><style>.cls-1{fill:#fff;}</style></defs><path class="cls-1" d="M121.54,1.05H17A15.89,15.89,0,0,0,1.14,16.91v93.33A15.88,15.88,0,0,0,17,126.1H121.54a15.88,15.88,0,0,0,15.87-15.86V99.92a2.86,2.86,0,0,0-5.71,0v10.32a10.17,10.17,0,0,1-10.16,10.16H17A10.17,10.17,0,0,1,6.85,110.24V29.48H131.7V82.6a2.86,2.86,0,1,0,5.71,0V16.91A15.89,15.89,0,0,0,121.54,1.05Zm-20.87,10a4.53,4.53,0,1,1-4.53,4.53A4.53,4.53,0,0,1,100.67,11.07Zm5.13-4.32h11.73a10.21,10.21,0,0,0-1,17h-9.71a10.21,10.21,0,0,0-1-17Zm16.86,4.32a4.53,4.53,0,1,1-4.54,4.53A4.54,4.54,0,0,1,122.66,11.07ZM6.85,16.91A10.17,10.17,0,0,1,17,6.75H95.54a10.21,10.21,0,0,0-1,17H6.85Zm121.94,6.86a10.26,10.26,0,0,0,2.91-3.4v3.4Z"/><path class="cls-1" d="M30.41,44.66a7.2,7.2,0,0,0-7.19,7.18V97.47a7.2,7.2,0,0,0,7.19,7.19H53.55a7.2,7.2,0,0,0,7.18-7.19V51.84a7.19,7.19,0,0,0-7.18-7.18ZM55,51.84V97.47A1.48,1.48,0,0,1,53.55,99H30.41a1.48,1.48,0,0,1-1.48-1.48V51.84a1.47,1.47,0,0,1,1.48-1.47H53.55A1.47,1.47,0,0,1,55,51.84Z"/><path class="cls-1" d="M115.27,44.66H74.41a2.86,2.86,0,0,0,0,5.71h40.86a2.86,2.86,0,0,0,0-5.71Z"/><path class="cls-1" d="M115.27,71.81H74.41a2.85,2.85,0,1,0,0,5.7h40.86a2.85,2.85,0,1,0,0-5.7Z"/><path class="cls-1" d="M115.27,99.43H74.41a2.86,2.86,0,0,0,0,5.71h40.86a2.86,2.86,0,0,0,0-5.71Z"/></svg>