<svg id="Layer_1" data-name="Layer 1" xmlns="http://www.w3.org/2000/svg" viewBox="0 0 117.81 143.28"><defs><style>.cls-1{fill:#fff;}</style></defs><path class="cls-1" d="M113.82,18.49c-17.56-1.1-35.52-6.75-53.38-16.8a3.16,3.16,0,0,0-3.07,0C39.5,11.74,21.55,17.39,4,18.49a3.13,3.13,0,0,0-2.93,3.12V81a47.69,47.69,0,0,0,9.12,27.8A76.92,76.92,0,0,0,29.77,127.6,119.62,119.62,0,0,0,58,141.84a3.12,3.12,0,0,0,1.91,0A120.07,120.07,0,0,0,88,127.6a76.92,76.92,0,0,0,19.59-18.78A47.69,47.69,0,0,0,116.75,81V21.61A3.14,3.14,0,0,0,113.82,18.49ZM110.5,81c0,15.55-8.71,29.47-25.89,41.35A117.38,117.38,0,0,1,58.9,135.56a117,117,0,0,1-25.58-13.11c-17.26-11.9-26-25.84-26-41.43V24.51C24.37,23,41.7,17.44,58.9,8c17.21,9.44,34.54,15,51.6,16.52V81Z"/><path class="cls-1" d="M70.59,83.27c-.45-2.65-.9-5.38-1.3-8.08a18.77,18.77,0,1,0-20.77,0c-.4,2.71-.85,5.44-1.3,8.09-.9,5.44-1.84,11.06-2.37,16.64a3.16,3.16,0,0,0,.8,2.4,3.12,3.12,0,0,0,2.31,1H69.85A3.12,3.12,0,0,0,73,99.91C72.43,94.33,71.49,88.71,70.59,83.27ZM62.79,74c.48,3.46,1.07,7,1.63,10.33.7,4.2,1.42,8.51,1.94,12.78H51.45c.52-4.27,1.24-8.58,1.94-12.78C54,80.92,54.54,77.43,55,74a3.12,3.12,0,0,0-1.7-3.22,12.51,12.51,0,1,1,11.17,0A3.12,3.12,0,0,0,62.79,74Z"/><path class="cls-1" d="M57.48,15.82A140.1,140.1,0,0,1,16.2,29.7a3.12,3.12,0,0,0-2.63,3.08V81c0,13.27,7.68,25.37,22.84,36a111.3,111.3,0,0,0,21.33,11.44,3.07,3.07,0,0,0,2.33,0c2.31-.93,5.91-2.48,10-4.6a3.13,3.13,0,0,0-2.89-5.55c-3.22,1.68-6.13,3-8.26,3.87A104.26,104.26,0,0,1,40,111.86C26.61,102.5,19.82,92.13,19.82,81V35.42A147.09,147.09,0,0,0,58.91,22.11,146.9,146.9,0,0,0,98,35.42V81c0,8.23-3.75,16.11-11.15,23.42a3.13,3.13,0,0,0,4.4,4.44c8.63-8.52,13-17.9,13-27.86V32.78a3.12,3.12,0,0,0-2.63-3.08A140.1,140.1,0,0,1,60.33,15.82,3.18,3.18,0,0,0,57.48,15.82Z"/><path class="cls-1" d="M77.28,112.25l-.29.29a3.13,3.13,0,1,0,4.4,4.44l.33-.33a3.13,3.13,0,1,0-4.44-4.4Z"/></svg>