<svg id="Layer_1" data-name="Layer 1" xmlns="http://www.w3.org/2000/svg" viewBox="0 0 142.7 142.91"><defs><style>.cls-1{fill:#fff;}</style></defs><g id="Processor_security" data-name="Processor security"><path class="cls-1" d="M59.59,22h4.7v4.7h-4.7Z"/><path class="cls-1" d="M120.72,78.4h4.7v4.71h-4.7Z"/><path class="cls-1" d="M78.4,116h4.7v4.7H78.4Z"/><path class="cls-1" d="M59.59,123.07h4.7v4.71h-4.7Z"/><path class="cls-1" d="M22,69h4.71v4.7H22Z"/><path class="cls-1" d="M78.4,22h4.7v4.7H78.4Z"/><path class="cls-1" d="M116,59.59h4.7V64.3H116Z"/><path class="cls-1" d="M104.26,36.08H109v4.7h-4.71Z"/><path class="cls-1" d="M33.73,36.08h4.7v4.7h-4.7Z"/><path class="cls-1" d="M104.26,101.91H109v4.71h-4.71Z"/><path class="cls-1" d="M33.73,101.91h4.7v4.71h-4.7Z"/><path class="cls-1" d="M71.07,69A7,7,0,0,0,69,82.69v5.12h4.7V82.67A7,7,0,0,0,71.07,69Zm2.63,7a2.35,2.35,0,0,1-2.26,2.44h0a2.35,2.35,0,0,1-.19-4.7h.1A2.36,2.36,0,0,1,73.7,76Z"/><path class="cls-1" d="M83.1,62.38V59.59a11.76,11.76,0,0,0-23.51,0v2.79A7,7,0,0,0,54.89,69V87.81a7.05,7.05,0,0,0,7,7H80.75a7.06,7.06,0,0,0,7.06-7V69A7.06,7.06,0,0,0,83.1,62.38ZM64.29,59.59a7.06,7.06,0,0,1,14.11,0V62H64.29ZM83.1,87.81a2.35,2.35,0,0,1-2.35,2.35H61.94a2.35,2.35,0,0,1-2.35-2.35V69a2.35,2.35,0,0,1,2.35-2.35H80.75A2.35,2.35,0,0,1,83.1,69Z"/><path class="cls-1" d="M134.83,92.51a6.87,6.87,0,0,0-3,.71l-5.41-5.41H104.26v-4.7H116V78.4H104.26V73.7h12.31L130,67A7,7,0,1,0,127.78,62a8.14,8.14,0,0,0,.08.85L115.47,69H104.26V64.3h7.06V59.59h-7.06v-4.7h10.38l7.76-7.76a7.13,7.13,0,1,0-3.32-3.32l-6.38,6.38h-8.44A11.76,11.76,0,0,0,92.51,38.43V32.35L106,18.92a6.86,6.86,0,0,0,3,.7,7.13,7.13,0,1,0-6.35-4L87.81,30.4v8H83.1v-7H78.4v7.05H73.7V21.54a7.05,7.05,0,1,0-4.7,0V38.43H64.29v-7h-4.7v7.05h-4.7V21L44.78,10.89a7,7,0,1,0-6.35,4,6.86,6.86,0,0,0,3-.7L50.19,23V38.43A11.78,11.78,0,0,0,38.43,50.19H30l-6.38-6.38a7.16,7.16,0,1,0-3.33,3.32l7.76,7.76H38.43v4.7h-15L11.16,69.85a7,7,0,1,0,3.76,6.2h0a7,7,0,0,0-.56-2.74l10.82-9H38.43V69h-7v4.7h7.05v4.7H17.27v4.71H38.43v4.7h-13L15.94,102a6.92,6.92,0,0,0-1-.11,7.12,7.12,0,1,0,5.2,2.33l7.81-11.73h10.5a11.78,11.78,0,0,0,11.76,11.76v15.48l-8.74,8.73a6.86,6.86,0,0,0-3-.7,7.13,7.13,0,1,0,6.35,4L54.89,121.7V104.27h4.7v14.1h4.7v-14.1H69v20.11l14.28,8.93a7.15,7.15,0,1,0,2.51-4L73.7,121.77v-17.5h4.7v7h4.7v-7h4.71v18.8H104.7a7.05,7.05,0,1,0,0-4.7H92.51v-14.1a11.76,11.76,0,0,0,11.75-11.76h20.19l4,4a6.89,6.89,0,0,0-.7,3,7,7,0,1,0,7.05-7Zm0-32.92A2.36,2.36,0,1,1,132.48,62,2.36,2.36,0,0,1,134.83,59.59Zm-9.41-21.16a2.36,2.36,0,1,1-2.35,2.35A2.36,2.36,0,0,1,125.42,38.43ZM109,10.22a2.35,2.35,0,1,1-2.35,2.35A2.35,2.35,0,0,1,109,10.22ZM71.35,12.57A2.35,2.35,0,1,1,69,14.92,2.35,2.35,0,0,1,71.35,12.57ZM36.08,7.87a2.35,2.35,0,1,1,2.35,2.35A2.35,2.35,0,0,1,36.08,7.87ZM14.92,40.78a2.35,2.35,0,1,1,2.35,2.36A2.35,2.35,0,0,1,14.92,40.78Zm-7,37.62a2.35,2.35,0,1,1,2.35-2.35A2.35,2.35,0,0,1,7.87,78.4Zm7.05,32.92A2.35,2.35,0,1,1,17.27,109,2.35,2.35,0,0,1,14.92,111.32Zm23.51,25.86a2.35,2.35,0,1,1,2.35-2.35A2.35,2.35,0,0,1,38.43,137.18Zm51.73-4.7a2.35,2.35,0,1,1-2.35,2.35A2.35,2.35,0,0,1,90.16,132.48Zm21.16-14.11a2.35,2.35,0,1,1-2.35,2.35A2.35,2.35,0,0,1,111.32,118.37ZM99.56,92.51a7,7,0,0,1-7,7H50.19a7.05,7.05,0,0,1-7.06-7V50.19a7.05,7.05,0,0,1,7.06-7H92.51a7,7,0,0,1,7,7Zm35.27,9.4a2.35,2.35,0,1,1,2.35-2.35A2.35,2.35,0,0,1,134.83,101.91Z"/></g></svg>