<svg id="Layer_1" data-name="Layer 1" xmlns="http://www.w3.org/2000/svg" xmlns:xlink="http://www.w3.org/1999/xlink" viewBox="0 0 397.32 121.11"><defs><style>.cls-1{fill:url(#linear-gradient);}.cls-2{fill:url(#linear-gradient-2);}.cls-3{fill:url(#linear-gradient-3);}.cls-4{fill:url(#linear-gradient-4);}.cls-5{fill:url(#linear-gradient-5);}.cls-6{fill:url(#linear-gradient-6);}.cls-7{fill:url(#linear-gradient-7);}.cls-8{fill:url(#linear-gradient-8);}.cls-9{fill:url(#linear-gradient-9);}.cls-10{fill:url(#linear-gradient-10);}.cls-11{fill:url(#linear-gradient-11);}.cls-12{fill:url(#linear-gradient-12);}.cls-13{fill:url(#linear-gradient-13);}.cls-14{fill:url(#linear-gradient-14);}.cls-15{isolation:isolate;}.cls-16{fill:#2a3042;}</style><linearGradient id="linear-gradient" x1="14.52" y1="17.39" x2="87.3" y2="97.63" gradientUnits="userSpaceOnUse"><stop offset="0" stop-color="#3827b4"/><stop offset="1" stop-color="#6c18a4"/></linearGradient><linearGradient id="linear-gradient-2" x1="14.52" y1="17.39" x2="87.3" y2="97.63" xlink:href="#linear-gradient"/><linearGradient id="linear-gradient-3" x1="14.52" y1="17.39" x2="87.3" y2="97.63" xlink:href="#linear-gradient"/><linearGradient id="linear-gradient-4" x1="14.52" y1="17.39" x2="87.3" y2="97.63" xlink:href="#linear-gradient"/><linearGradient id="linear-gradient-5" x1="13.05" y1="18.73" x2="85.82" y2="98.97" xlink:href="#linear-gradient"/><linearGradient id="linear-gradient-6" x1="29.33" y1="3.96" x2="102.11" y2="84.2" xlink:href="#linear-gradient"/><linearGradient id="linear-gradient-7" x1="3.19" y1="27.67" x2="75.96" y2="107.91" xlink:href="#linear-gradient"/><linearGradient id="linear-gradient-8" x1="16.56" y1="15.54" x2="89.34" y2="95.78" xlink:href="#linear-gradient"/><linearGradient id="linear-gradient-9" x1="19.92" y1="12.5" x2="92.69" y2="92.74" xlink:href="#linear-gradient"/><linearGradient id="linear-gradient-10" x1="14.3" y1="17.59" x2="87.08" y2="97.83" xlink:href="#linear-gradient"/><linearGradient id="linear-gradient-11" x1="7.14" y1="24.08" x2="79.92" y2="104.32" xlink:href="#linear-gradient"/><linearGradient id="linear-gradient-12" x1="8.4" y1="22.94" x2="81.18" y2="103.18" xlink:href="#linear-gradient"/><linearGradient id="linear-gradient-13" x1="1.09" y1="29.57" x2="73.86" y2="109.82" xlink:href="#linear-gradient"/><linearGradient id="linear-gradient-14" x1="10.9" y1="20.67" x2="83.68" y2="100.91" xlink:href="#linear-gradient"/></defs><g id="Grupo_5361" data-name="Grupo 5361"><g id="Grupo_5589" data-name="Grupo 5589"><g id="Grupo_2969" data-name="Grupo 2969"><g id="Grupo_2968" data-name="Grupo 2968"><path id="Trazado_2747" data-name="Trazado 2747" class="cls-1" d="M53.67,2.32a6.2,6.2,0,0,1,3,.68L102,29.16a7,7,0,0,1,3,5.23V86.72A7,7,0,0,1,102,92L56.69,118.11a7,7,0,0,1-6,0L5.33,92a7,7,0,0,1-3-5.24V34.39a7,7,0,0,1,3-5.23L50.65,3a6.2,6.2,0,0,1,3-.69m0-2.31a8.59,8.59,0,0,0-4.18,1L4.18,27.15A9.31,9.31,0,0,0,0,34.39V86.71A9.27,9.27,0,0,0,4.18,94l45.31,26.16a9.24,9.24,0,0,0,8.36,0L103.16,94a9.27,9.27,0,0,0,4.18-7.24V34.39a9.28,9.28,0,0,0-4.18-7.24L57.85,1A8.59,8.59,0,0,0,53.67,0Z"/><path id="Trazado_2748" data-name="Trazado 2748" class="cls-2" d="M53.67,9a6.31,6.31,0,0,1,3,.68L96.22,32.5a7,7,0,0,1,3,5.23V83.37a7,7,0,0,1-3,5.23L56.69,111.42a7,7,0,0,1-6,0L11.13,88.6a7,7,0,0,1-3-5.23V37.73a7,7,0,0,1,3-5.23L50.65,9.68a6.31,6.31,0,0,1,3-.68m0-2.32a8.6,8.6,0,0,0-4.18,1L10,30.5a9.26,9.26,0,0,0-4.18,7.23V83.37A9.27,9.27,0,0,0,10,90.61l39.52,22.82a9.24,9.24,0,0,0,8.36,0L97.38,90.61a9.26,9.26,0,0,0,4.17-7.24V37.73a9.25,9.25,0,0,0-4.17-7.23L57.85,7.68a8.6,8.6,0,0,0-4.18-1Z"/><path id="Trazado_2749" data-name="Trazado 2749" class="cls-3" d="M53.67,15.68a6.32,6.32,0,0,1,3,.69L90.43,35.85a7,7,0,0,1,3,5.23V80a7,7,0,0,1-3,5.23L56.69,104.74a7,7,0,0,1-6,0L16.91,85.27a7,7,0,0,1-3-5.24V41.08a7,7,0,0,1,3-5.23L50.65,16.37a6.2,6.2,0,0,1,3-.68m0-2.32a8.6,8.6,0,0,0-4.18,1L15.76,33.84a9.24,9.24,0,0,0-4.18,7.24V80a9.24,9.24,0,0,0,4.18,7.24l33.73,19.48a9.32,9.32,0,0,0,8.36,0L91.58,87.27A9.24,9.24,0,0,0,95.76,80V41.08a9.24,9.24,0,0,0-4.18-7.24L57.85,14.36a8.71,8.71,0,0,0-4.18-1Z"/><path id="Trazado_2750" data-name="Trazado 2750" class="cls-4" d="M53.67,22.37a6.31,6.31,0,0,1,3,.68l28,16.14a7,7,0,0,1,3,5.23V76.69a7,7,0,0,1-3,5.23L56.69,98.06a7,7,0,0,1-6,0L22.71,81.92a7,7,0,0,1-3-5.23V44.42a7,7,0,0,1,3-5.23L50.65,23.05a6.34,6.34,0,0,1,3-.68m0-2.32a8.53,8.53,0,0,0-4.17,1L21.55,37.18a9.24,9.24,0,0,0-4.18,7.24V76.69a9.26,9.26,0,0,0,4.18,7.24l28,16.13a9.22,9.22,0,0,0,8.35,0L85.8,83.93A9.31,9.31,0,0,0,90,76.69V44.42a9.31,9.31,0,0,0-4.18-7.24L57.85,21.05a8.57,8.57,0,0,0-4.18-1Z"/></g></g><g id="Grupo_2970" data-name="Grupo 2970"><path id="Trazado_2751" data-name="Trazado 2751" class="cls-5" d="M30.26,61.24a1.2,1.2,0,0,1-1.2-1.2A24.58,24.58,0,0,1,49.58,35.72a1.19,1.19,0,0,1,1.38,1h0a1.21,1.21,0,0,1-1,1.39A22.18,22.18,0,0,0,31.47,60a1.2,1.2,0,0,1-1.2,1.2Z"/><path id="Trazado_2752" data-name="Trazado 2752" class="cls-6" d="M77.18,61.23A1.2,1.2,0,0,1,76,60,22.28,22.28,0,0,0,53.72,37.78a1.2,1.2,0,1,1,0-2.4A24.69,24.69,0,0,1,78.39,60,1.2,1.2,0,0,1,77.18,61.23Z"/><path id="Trazado_2753" data-name="Trazado 2753" class="cls-7" d="M31.27,66.86a1.18,1.18,0,0,1-1.11-.73,1.2,1.2,0,0,1,.63-1.58h0l.37-.15c2.11-.86,3.72-1.73,3.72-4.37a19.16,19.16,0,0,1,.25-3,1.2,1.2,0,0,1,1.37-1h0a1.2,1.2,0,0,1,1,1.37h0A16.72,16.72,0,0,0,37.31,60c0,4.46-3.4,5.85-5.22,6.59l-.35.15A1.27,1.27,0,0,1,31.27,66.86Z"/><path id="Trazado_2754" data-name="Trazado 2754" class="cls-8" d="M37.62,54.05a1.19,1.19,0,0,1-1.1-1.68h0a18.8,18.8,0,0,1,14-10.89,18.54,18.54,0,0,1,3.16-.26,1.2,1.2,0,1,1,0,2.4,15.9,15.9,0,0,0-2.76.23,16.36,16.36,0,0,0-12.24,9.5A1.2,1.2,0,0,1,37.62,54.05Z"/><path id="Trazado_2755" data-name="Trazado 2755" class="cls-9" d="M66.29,80.8a1.2,1.2,0,0,1-1.07-1.75h0c3.63-6.93,4.92-11.9,4.92-19a16.41,16.41,0,0,0-10-15.13,1.19,1.19,0,0,1-.64-1.57h0A1.2,1.2,0,0,1,61,42.68h0A18.81,18.81,0,0,1,72.55,60c0,7.55-1.36,12.81-5.19,20.12A1.21,1.21,0,0,1,66.29,80.8Z"/><path id="Trazado_2756" data-name="Trazado 2756" class="cls-10" d="M56.71,84.26A1.18,1.18,0,0,1,56,84a1.2,1.2,0,0,1-.21-1.68h0c5.75-7.25,8.66-14.75,8.66-22.28a10.71,10.71,0,0,0-10.7-10.7,1.2,1.2,0,0,1,0-2.4A13.12,13.12,0,0,1,66.83,60c0,8.09-3.09,16.09-9.18,23.77A1.2,1.2,0,0,1,56.71,84.26Z"/><path id="Trazado_2757" data-name="Trazado 2757" class="cls-11" d="M33.13,72.58a1.21,1.21,0,0,1-.38-2.35h0C36.55,69,40.6,65.68,40.6,60a13.06,13.06,0,0,1,6.23-11.16,1.2,1.2,0,0,1,1.65.38h0a1.2,1.2,0,0,1-.39,1.65h0A10.66,10.66,0,0,0,43,60C43,67,38.1,71,33.5,72.52A1.19,1.19,0,0,1,33.13,72.58Z"/><path id="Trazado_2758" data-name="Trazado 2758" class="cls-12" d="M48.64,84a1.21,1.21,0,0,1-.78-2.13h0A28.58,28.58,0,0,0,58.47,60a4.75,4.75,0,0,0-4.75-4.75,5.29,5.29,0,0,0-.8.06A4.76,4.76,0,0,0,49,60c0,7.75-3.83,13.57-11.4,17.28a1.2,1.2,0,0,1-1.6-.54h0a1.21,1.21,0,0,1,.55-1.61h0C43.18,71.88,46.56,66.79,46.56,60a7.14,7.14,0,0,1,6-7.06,8,8,0,0,1,1.2-.1A7.18,7.18,0,0,1,60.88,60,31,31,0,0,1,49.41,83.74,1.29,1.29,0,0,1,48.64,84Z"/><path id="Trazado_2759" data-name="Trazado 2759" class="cls-13" d="M42,81.49a1.19,1.19,0,0,1-1-.58,1.21,1.21,0,0,1,.42-1.65h0A23.58,23.58,0,0,0,47,74.71a1.2,1.2,0,0,1,1.69-.1h0a1.2,1.2,0,0,1,.09,1.7,26.07,26.07,0,0,1-6.15,5A1.09,1.09,0,0,1,42,81.49Z"/><path id="Trazado_2760" data-name="Trazado 2760" class="cls-14" d="M50.4,73.27a1.23,1.23,0,0,1-.62-.17,1.2,1.2,0,0,1-.41-1.65h0A22.15,22.15,0,0,0,52.51,60a1.2,1.2,0,1,1,2.4,0,24.58,24.58,0,0,1-3.48,12.65A1.2,1.2,0,0,1,50.4,73.27Z"/></g></g><g id="Soberana"><g class="cls-15"><path class="cls-16" d="M157.8,71.71a16,16,0,0,1-1,6.17,9.32,9.32,0,0,1-3,3.91,11.71,11.71,0,0,1-4.68,2,29.66,29.66,0,0,1-6,.57c-1.17,0-2.33,0-3.5-.13s-2.27-.21-3.3-.37-2-.33-2.8-.51-1.52-.33-2.06-.47a1.81,1.81,0,0,1-.94-.6,1.71,1.71,0,0,1-.4-1.15,2.06,2.06,0,0,1,.33-1.21,1.67,1.67,0,0,1,1.42-.47,22.37,22.37,0,0,1,4.65.67,30.79,30.79,0,0,0,6.81.67c3.81,0,6.52-.78,8.12-2.36a8.5,8.5,0,0,0,2.39-6.33c0-3.15-.84-5.49-2.53-7s-4.23-2.64-7.65-3.27a37,37,0,0,1-5.83-1.49A12,12,0,0,1,133.67,58a9.07,9.07,0,0,1-2.42-3.64,15.55,15.55,0,0,1-.81-5.36,12.89,12.89,0,0,1,1.08-5.53,10.16,10.16,0,0,1,3-3.74A12.53,12.53,0,0,1,139,37.61a22.2,22.2,0,0,1,5.62-.67,42.66,42.66,0,0,1,6.27.44,34,34,0,0,1,5,1,1.77,1.77,0,0,1,.94.61,1.68,1.68,0,0,1,.41,1.14,2.09,2.09,0,0,1-.34,1.22,1.7,1.7,0,0,1-1.42.47,10.81,10.81,0,0,1-1.88-.21c-.77-.13-1.62-.29-2.56-.47s-2-.33-3.1-.47a30.69,30.69,0,0,0-3.51-.2,14.73,14.73,0,0,0-4.82.67A8,8,0,0,0,136.51,43a6.37,6.37,0,0,0-1.62,2.63,10.26,10.26,0,0,0-.47,3.17q0,4.25,2.29,6.27c1.52,1.35,4,2.33,7.34,3a39,39,0,0,1,6.07,1.62,13.12,13.12,0,0,1,4.28,2.49A9.48,9.48,0,0,1,157,66,16.73,16.73,0,0,1,157.8,71.71Z"/><path class="cls-16" d="M194.94,65.92a38.7,38.7,0,0,1-.74,8,15,15,0,0,1-2.46,5.76,10.77,10.77,0,0,1-4.45,3.51,17.23,17.23,0,0,1-6.77,1.17,16.94,16.94,0,0,1-6.74-1.17,10.09,10.09,0,0,1-4.32-3.51,15,15,0,0,1-2.29-5.76,42.1,42.1,0,0,1-.67-8q0-8.76,3.27-13.21t11.15-4.45a17.34,17.34,0,0,1,6.6,1.11,10.08,10.08,0,0,1,4.35,3.34,14.06,14.06,0,0,1,2.36,5.52A37.22,37.22,0,0,1,194.94,65.92Zm-3.78,0a46,46,0,0,0-.3-5.29A13.26,13.26,0,0,0,189.51,56a7.78,7.78,0,0,0-3.13-3.23,13.74,13.74,0,0,0-11.32,0A7.8,7.8,0,0,0,171.92,56a13.7,13.7,0,0,0-1.35,4.62,46,46,0,0,0-.3,5.29c0,1.93.09,3.81.27,5.63a14.19,14.19,0,0,0,1.31,4.85A8.22,8.22,0,0,0,175,79.8a13.47,13.47,0,0,0,11.46,0,8.19,8.19,0,0,0,3.13-3.4,14,14,0,0,0,1.31-4.85C191.07,69.73,191.16,67.85,191.16,65.92Z"/><path class="cls-16" d="M232.28,65.92a38.7,38.7,0,0,1-.74,8,14.86,14.86,0,0,1-2.47,5.76,10.68,10.68,0,0,1-4.44,3.51,17.25,17.25,0,0,1-6.78,1.17,42.9,42.9,0,0,1-6.67-.47A23.53,23.53,0,0,1,206,82.57c-.63-.27-.94-.9-.94-1.89V36.33a2.52,2.52,0,0,1,.44-1.55,1.87,1.87,0,0,1,2.76,0,2.59,2.59,0,0,1,.44,1.55V49.74a34,34,0,0,1,3.91-1,29.51,29.51,0,0,1,5.86-.51,16.42,16.42,0,0,1,6.4,1.11,10.11,10.11,0,0,1,4.28,3.34,14.54,14.54,0,0,1,2.4,5.52A35.76,35.76,0,0,1,232.28,65.92Zm-3.78,0a46,46,0,0,0-.3-5.29A13.26,13.26,0,0,0,226.85,56a7.84,7.84,0,0,0-3.13-3.23,11.28,11.28,0,0,0-5.67-1.22,33,33,0,0,0-5.35.41,24.7,24.7,0,0,0-4,.94V79.67a24.23,24.23,0,0,0,4,1,30.48,30.48,0,0,0,5.39.44,10.93,10.93,0,0,0,5.74-1.28,8.18,8.18,0,0,0,3.13-3.37,13.62,13.62,0,0,0,1.31-4.82C228.41,69.79,228.5,67.9,228.5,65.92Z"/><path class="cls-16" d="M267,64.57a2.73,2.73,0,0,1-.41,1.55,1.51,1.51,0,0,1-1.35.61H244.07a39.86,39.86,0,0,0,.34,5.32,12.85,12.85,0,0,0,1.41,4.55A8.18,8.18,0,0,0,249,79.8,10.89,10.89,0,0,0,254.52,81a28,28,0,0,0,6.13-.57,18.83,18.83,0,0,1,3.37-.57,1.36,1.36,0,0,1,1.18.51,1.9,1.9,0,0,1,.37,1.17,1.46,1.46,0,0,1-1.15,1.55,33,33,0,0,1-4.75.91,46.57,46.57,0,0,1-6.16.37A15.56,15.56,0,0,1,247,83.21a9.35,9.35,0,0,1-4-3.51,15.24,15.24,0,0,1-2.05-5.76,48.42,48.42,0,0,1-.58-8q0-8.76,3.14-13.21t10.41-4.45q7,0,10,4.08T267,64.57Zm-3.58-.88c-.09-1.61-.23-3.15-.43-4.61a10.43,10.43,0,0,0-1.32-3.88,7.27,7.27,0,0,0-2.9-2.69,13,13,0,0,0-10.11,0,6.92,6.92,0,0,0-2.86,2.73,11.45,11.45,0,0,0-1.32,3.9,37,37,0,0,0-.4,4.55Z"/><path class="cls-16" d="M291.65,50.48a1.78,1.78,0,0,1-.37,1.15,1.42,1.42,0,0,1-1.18.47c-.31,0-.9,0-1.75-.13a23.38,23.38,0,0,0-7.82.54V82a2.61,2.61,0,0,1-.44,1.55,1.89,1.89,0,0,1-2.76,0,2.61,2.61,0,0,1-.44-1.55V51.49a1.91,1.91,0,0,1,1.08-2,19.82,19.82,0,0,1,3.47-.91,21,21,0,0,1,3.74-.37c1,0,2.05.05,3,.13a11.35,11.35,0,0,1,2.3.41A1.62,1.62,0,0,1,291.65,50.48Z"/><path class="cls-16" d="M323.33,80.61a2.73,2.73,0,0,1-.24,1.18,1.35,1.35,0,0,1-.77.71,35.56,35.56,0,0,1-5.19,1.28,37.27,37.27,0,0,1-6.67.6,24.27,24.27,0,0,1-6-.63,9.73,9.73,0,0,1-3.84-1.89,6.79,6.79,0,0,1-2.05-3.14,14.08,14.08,0,0,1-.61-4.38,11.68,11.68,0,0,1,.81-4.38,8.32,8.32,0,0,1,2.8-3.54A15.12,15.12,0,0,1,306.88,64a34.38,34.38,0,0,1,8.43-.88h4.45v-4c0-2.83-.66-4.81-2-5.93s-3.48-1.69-6.54-1.69a26.15,26.15,0,0,0-6.16.58,16.35,16.35,0,0,1-3.2.57,1.46,1.46,0,0,1-1.18-.44,1.64,1.64,0,0,1-.37-1.11,1.43,1.43,0,0,1,1.14-1.49,46.35,46.35,0,0,1,4.69-1,38.9,38.9,0,0,1,6.1-.44,19.06,19.06,0,0,1,5,.57,7.94,7.94,0,0,1,3.44,1.86,7.57,7.57,0,0,1,2,3.37,17.55,17.55,0,0,1,.64,5.12Zm-3.57-.74V66.05h-4.65a29.65,29.65,0,0,0-7.05.68A10.51,10.51,0,0,0,304,68.55a5.48,5.48,0,0,0-1.89,2.62,10.06,10.06,0,0,0-.47,3.11,10.28,10.28,0,0,0,.37,2.89,4.38,4.38,0,0,0,1.35,2.16,6.59,6.59,0,0,0,2.73,1.35,18.29,18.29,0,0,0,4.58.47,31,31,0,0,0,4.78-.4C317.11,80.48,318.54,80.18,319.76,79.87Z"/><path class="cls-16" d="M360.73,82a2.6,2.6,0,0,1-.43,1.55,1.9,1.9,0,0,1-2.77,0,2.61,2.61,0,0,1-.44-1.55V65.92a48.46,48.46,0,0,0-.43-7.18,10.89,10.89,0,0,0-1.52-4.38,5.49,5.49,0,0,0-3-2.19,15.65,15.65,0,0,0-4.78-.61,28.72,28.72,0,0,0-4.45.37,39.71,39.71,0,0,0-4,.85V82a2.61,2.61,0,0,1-.44,1.55,1.89,1.89,0,0,1-2.76,0,2.54,2.54,0,0,1-.44-1.55V52a2.92,2.92,0,0,1,.23-1.18,1.35,1.35,0,0,1,.78-.7,39.31,39.31,0,0,1,5.05-1.32,32.54,32.54,0,0,1,6.27-.57,22.79,22.79,0,0,1,6.84.84,7.35,7.35,0,0,1,4,2.9,12.86,12.86,0,0,1,1.85,5.46,62.39,62.39,0,0,1,.47,8.46Z"/><path class="cls-16" d="M395.85,80.61a2.73,2.73,0,0,1-.24,1.18,1.35,1.35,0,0,1-.77.71,35.56,35.56,0,0,1-5.19,1.28,37.27,37.27,0,0,1-6.67.6,24.27,24.27,0,0,1-6-.63,9.73,9.73,0,0,1-3.84-1.89,6.71,6.71,0,0,1-2.05-3.14,14.08,14.08,0,0,1-.61-4.38,11.68,11.68,0,0,1,.81-4.38A8.37,8.37,0,0,1,374,66.42,15.26,15.26,0,0,1,379.4,64a34.38,34.38,0,0,1,8.43-.88h4.45v-4c0-2.83-.66-4.81-2-5.93s-3.48-1.69-6.54-1.69a26.15,26.15,0,0,0-6.16.58,16.35,16.35,0,0,1-3.2.57,1.46,1.46,0,0,1-1.18-.44,1.64,1.64,0,0,1-.37-1.11A1.43,1.43,0,0,1,374,49.67a46.35,46.35,0,0,1,4.69-1,38.86,38.86,0,0,1,6.09-.44,19.09,19.09,0,0,1,5,.57,8,8,0,0,1,3.44,1.86,7.57,7.57,0,0,1,2,3.37,17.9,17.9,0,0,1,.64,5.12Zm-3.57-.74V66.05h-4.65a29.65,29.65,0,0,0-7.05.68,10.63,10.63,0,0,0-4.08,1.82,5.53,5.53,0,0,0-1.88,2.62,10.06,10.06,0,0,0-.47,3.11,10.28,10.28,0,0,0,.37,2.89,4.38,4.38,0,0,0,1.35,2.16,6.6,6.6,0,0,0,2.72,1.35,18.43,18.43,0,0,0,4.59.47,31,31,0,0,0,4.78-.4C389.62,80.48,391.06,80.18,392.28,79.87Z"/></g></g></g></svg>