<svg id="Layer_1" data-name="Layer 1" xmlns="http://www.w3.org/2000/svg" viewBox="0 0 112.77 90.82"><defs><style>.cls-1{fill:#747474;}</style></defs><g id="Layer_2" data-name="Layer 2"><g id="icons_Q2" data-name="icons Q2"><g id="Grupo_3643" data-name="Grupo 3643"><path id="Trazado_3990" data-name="Trazado 3990" class="cls-1" d="M111,40c-5.39-6.67-25.4-28.47-54.64-28.47a60,60,0,0,0-9.75.76l9.23,9.5h.52c22.57,0,39.25,15.9,45.41,23.09A87.44,87.44,0,0,1,90,55.93l7.19,7.18A77.07,77.07,0,0,0,111,49.77,7.7,7.7,0,0,0,111,40Z"/><path id="Trazado_3991" data-name="Trazado 3991" class="cls-1" d="M70.24,51.57a15,15,0,0,0,1.54-6.67A15.4,15.4,0,0,0,56.39,29.5,14.94,14.94,0,0,0,49.72,31L19.7,1a5.13,5.13,0,0,0-7.18,7.18L24.57,20.52A82.48,82.48,0,0,0,1.74,40a7.7,7.7,0,0,0,0,9.75c5.39,6.67,25.4,28.48,54.65,28.48a58.94,58.94,0,0,0,21.8-4.11L93.07,88.77a5.13,5.13,0,0,0,8.21-6.16,5.53,5.53,0,0,0-1-1ZM56.39,68C33.81,68,17.13,52.08,11,44.9A76.17,76.17,0,0,1,32.27,28L42.53,38.23A14.94,14.94,0,0,0,41,44.9a15.39,15.39,0,0,0,15.4,15.39,15,15,0,0,0,6.67-1.54l7.18,7.18A48.9,48.9,0,0,1,56.39,68Z"/></g></g></g></svg>