<svg id="Layer_1" data-name="Layer 1" xmlns="http://www.w3.org/2000/svg" viewBox="0 0 112.77 66.7"><defs><style>.cls-1{fill:#3827B4;}</style></defs><g id="Layer_2-2" data-name="Layer 2-2"><g id="icons_Q2-2" data-name="icons Q2-2"><path id="Trazado_3992" data-name="Trazado 3992" class="cls-1" d="M111,28.48h0C105.64,21.81,85.63,0,56.39,0S7.13,21.81,1.74,28.48a7.7,7.7,0,0,0,0,9.75C7.13,44.9,27.14,66.7,56.39,66.7S105.64,44.9,111,38.23A7.7,7.7,0,0,0,111,28.48Zm-54.64,28c-22.58,0-39.26-15.9-45.41-23.09,6.15-7.18,22.83-23.09,45.41-23.09S95.64,26.17,101.8,33.35C95.64,40.54,79,56.44,56.39,56.44Z"/><circle id="Elipse_53096" data-name="Elipse 53096" class="cls-1" cx="56.39" cy="33.35" r="15.39"/></g></g></svg>