<svg id="Layer_1" data-name="Layer 1" xmlns="http://www.w3.org/2000/svg" viewBox="0 0 92.15 79.03"><defs><style>.cls-1{fill:#fff;}</style></defs><path class="cls-1" d="M85.26,33.26a5.76,5.76,0,0,0-1.1-.08H21.31l1.37-.64A12.67,12.67,0,0,0,26.28,30L43.91,12.37a6.6,6.6,0,0,0,.92-8.45,6.37,6.37,0,0,0-8.91-1.37,6.65,6.65,0,0,0-.65.54L3.4,35a6.38,6.38,0,0,0,0,9h0L35.27,75.85a6.37,6.37,0,0,0,9,0,6.17,6.17,0,0,0-.37-9.07L26.32,49.11a12.79,12.79,0,0,0-3.19-2.32l-1.91-.86H83.81a6.6,6.6,0,0,0,6.72-5.36A6.36,6.36,0,0,0,85.26,33.26Z"/></svg>