<svg id="Layer_1" data-name="Layer 1" xmlns="http://www.w3.org/2000/svg" viewBox="0 0 110.77 55"><defs><style>.cls-1{isolation:isolate;}.cls-2{fill:#3827B4;}</style></defs><g id="Grupo_5548" data-name="Grupo 5548"><g id="Seguridad" class="cls-1"><g class="cls-1"></g></g><g id="oQOyNx.tif"><g id="Grupo_5544" data-name="Grupo 5544"><path id="Trazado_5383" data-name="Trazado 5383" class="cls-2" d="M56.06,0A91.12,91.12,0,0,0,77.65,9.29c1.2.34,1.36.55,1.36,1.79,0,4.1.06,8.21,0,12.32a33.06,33.06,0,0,1-9.08,22.37,33.84,33.84,0,0,1-10.2,7.6,22,22,0,0,1-2.93,1.1A5.27,5.27,0,0,1,53.29,54a30.29,30.29,0,0,1-8.67-5.34,33.92,33.92,0,0,1-9.39-12.56,29.86,29.86,0,0,1-2.6-10.76c-.18-4.9-.12-9.8-.16-14.71,0-.72.28-1.05,1.05-1.27A94.12,94.12,0,0,0,43.59,5.93,90,90,0,0,0,54.55.5l.87-.5ZM76.81,18.32h-.08c0-2.11,0-4.23,0-6.34a.61.61,0,0,0-.5-.72h0a91.4,91.4,0,0,1-20-8.5.86.86,0,0,0-1,0,74.85,74.85,0,0,1-10.4,5.12c-3.19,1.24-6.45,2.29-9.68,3.42-.25.09-.44.13-.43.48.07,4.61,0,9.24.22,13.85a28.07,28.07,0,0,0,3.11,11.15,31.86,31.86,0,0,0,8,10.17A29.6,29.6,0,0,0,54,51.83a3.91,3.91,0,0,0,3.34.09c.5-.23,1-.41,1.51-.66a32.48,32.48,0,0,0,14-13.32,29.58,29.58,0,0,0,3.75-12.33c.17-2.42.19-4.85.27-7.29Z"/><path id="Trazado_5384" data-name="Trazado 5384" class="cls-2" d="M52.05,29.21c.29-.33.5-.59.72-.81L63.36,17.8a3.73,3.73,0,0,1,5.79,4.7,7.45,7.45,0,0,1-.52.6L54.91,36.83a3.74,3.74,0,0,1-4.75.77,4.46,4.46,0,0,1-.88-.69Q46,33.66,42.76,30.39a3.73,3.73,0,0,1-.26-5.26,5.11,5.11,0,0,1,.48-.45,3.61,3.61,0,0,1,4.54,0c1.27,1.13,2.45,2.37,3.66,3.57C51.45,28.52,51.7,28.82,52.05,29.21ZM52,36a6.25,6.25,0,0,0,1.17-.7q7-6.92,13.88-13.86a2.79,2.79,0,0,0,.28-.32,1.42,1.42,0,0,0-.27-2,1.26,1.26,0,0,0-.48-.23,1.55,1.55,0,0,0-1.62.55L53.15,31.26c-.83.83-1.37.83-2.2,0-1.53-1.52-3-3.05-4.57-4.55a1.44,1.44,0,1,0-2.23,1.82l.17.18Q47.64,32,51,35.33A6.36,6.36,0,0,0,52,36Z"/><path id="Trazado_5385" data-name="Trazado 5385" class="cls-2" d="M37,16.15c0-.66,0-1.32,0-2a1.25,1.25,0,0,1,1-1.38l5.86-2.08c.81-.28,1.44-.06,1.69.59s-.08,1.27-.87,1.56c-1.6.59-3.19,1.18-4.81,1.72a.69.69,0,0,0-.57.8v0c0,1,0,1.92,0,2.87a1.17,1.17,0,0,1-.72,1.15.93.93,0,0,1-1.13-.18A2.12,2.12,0,0,1,37,18.17,19.44,19.44,0,0,1,37,16.15Z"/><path id="Trazado_5386" data-name="Trazado 5386" class="cls-2" d="M60.69,45.26a6.44,6.44,0,0,1,.75-1c1.07-1,2.25-1.91,3.25-3s2-2.45,3-3.68a2.32,2.32,0,0,1,.88-.7,1,1,0,0,1,1.16.43,1.11,1.11,0,0,1,0,1.35c-.52.75-1,1.51-1.63,2.24a31.86,31.86,0,0,1-5.31,5.2,1.17,1.17,0,0,1-1.33.23A1.49,1.49,0,0,1,60.69,45.26Z"/><path id="Trazado_5387" data-name="Trazado 5387" class="cls-2" d="M58,47.27a1.19,1.19,0,0,1,1.19-1.17,1.15,1.15,0,0,1,1.13,1.12,1.25,1.25,0,0,1-1.18,1.21A1.13,1.13,0,0,1,58,47.3Z"/><path id="Trazado_5388" data-name="Trazado 5388" class="cls-2" d="M47.75,9.22a1.17,1.17,0,0,1,1.15,1.15,1.21,1.21,0,0,1-1.18,1.14,1.16,1.16,0,0,1-1.12-1.13A1.19,1.19,0,0,1,47.75,9.22Z"/></g></g></g></svg>